<?xml version="1.0" encoding="UTF-8"?>
<!-- Created with Inkscape (http://www.inkscape.org/) -->
<svg width="1008.2" height="245.68" version="1.1" viewBox="0 0 266.76 65.004" xmlns="http://www.w3.org/2000/svg">
 <g transform="translate(-208.79 -136.43)" fill-rule="evenodd">
  <path d="m208.79 136.43v64.805h20.469v-23.399h14.222l5.5291-14.165h-19.752v-13.149h24.04l5.2434-14.092h-49.753m56.011 0-0.0365 64.805h20.232v-64.805h-20.195m99.591 43.637 7.7936-26.983 8.0733 26.983zm18.627-43.637h-21.007l-23.293 64.811h19.554l2.5168-8.7146h22.794l2.6354 8.7146h20.153l-23.354-64.811m-84.052 0v64.805h20.457v-23.399h14.207l5.5686-14.165h-19.776v-13.149h24.05l5.2829-14.092h-49.789" stroke-width=".19758"/>
  <g stroke-linejoin="round" stroke-width=".10195">
   <circle cx="420.46" cy="169.08" r="9.6113"/>
   <circle cx="443.2" cy="169.08" r="9.6113"/>
   <circle cx="465.94" cy="169.08" r="9.6113"/>
   <circle cx="443.2" cy="146.26" r="9.6113"/>
   <circle cx="443.2" cy="191.82" r="9.6113"/>
  </g>
 </g>
</svg>
